<mxfile host="app.diagrams.net" modified="2021-09-13T08:31:02.304Z" agent="5.0 (Windows NT 10.0; Win64; x64) AppleWebKit/537.36 (KHTML, like Gecko) Chrome/93.0.4577.63 Safari/537.36" etag="UdBC1VlSmqwatMtEz0QN" version="15.0.6" type="github">
  <diagram id="Y--VRaqyyIF3lD4aCwp9" name="Page-1">
    <mxGraphModel dx="868" dy="450" grid="1" gridSize="10" guides="1" tooltips="1" connect="1" arrows="1" fold="1" page="1" pageScale="1" pageWidth="827" pageHeight="1169" math="0" shadow="0">
      <root>
        <mxCell id="0" />
        <mxCell id="1" parent="0" />
        <mxCell id="-SfcoU4QxyxbX_HQiDti-1" value="Товарищ фотограф" style="shape=umlActor;verticalLabelPosition=bottom;verticalAlign=top;html=1;outlineConnect=0;" vertex="1" parent="1">
          <mxGeometry x="30" y="30" width="50" height="90" as="geometry" />
        </mxCell>
        <mxCell id="-SfcoU4QxyxbX_HQiDti-2" value="камера" style="rounded=0;whiteSpace=wrap;html=1;" vertex="1" parent="1">
          <mxGeometry x="220" y="32.5" width="140" height="85" as="geometry" />
        </mxCell>
        <mxCell id="-SfcoU4QxyxbX_HQiDti-4" value="объект съемки" style="rounded=0;whiteSpace=wrap;html=1;" vertex="1" parent="1">
          <mxGeometry x="500" y="32.5" width="140" height="85" as="geometry" />
        </mxCell>
        <mxCell id="-SfcoU4QxyxbX_HQiDti-5" value="" style="endArrow=none;html=1;entryX=0.5;entryY=1;entryDx=0;entryDy=0;" edge="1" parent="1" target="-SfcoU4QxyxbX_HQiDti-2">
          <mxGeometry width="50" height="50" relative="1" as="geometry">
            <mxPoint x="290" y="520" as="sourcePoint" />
            <mxPoint x="370" y="140" as="targetPoint" />
          </mxGeometry>
        </mxCell>
        <mxCell id="-SfcoU4QxyxbX_HQiDti-6" value="" style="endArrow=none;html=1;entryX=0.5;entryY=1;entryDx=0;entryDy=0;" edge="1" parent="1">
          <mxGeometry width="50" height="50" relative="1" as="geometry">
            <mxPoint x="569" y="520" as="sourcePoint" />
            <mxPoint x="569.29" y="117.49999999999989" as="targetPoint" />
          </mxGeometry>
        </mxCell>
        <mxCell id="-SfcoU4QxyxbX_HQiDti-7" value="" style="endArrow=none;html=1;" edge="1" parent="1">
          <mxGeometry width="50" height="50" relative="1" as="geometry">
            <mxPoint x="55" y="520" as="sourcePoint" />
            <mxPoint x="55" y="150" as="targetPoint" />
          </mxGeometry>
        </mxCell>
        <mxCell id="-SfcoU4QxyxbX_HQiDti-10" value="" style="rounded=0;whiteSpace=wrap;html=1;" vertex="1" parent="1">
          <mxGeometry x="50" y="160" width="10" height="40" as="geometry" />
        </mxCell>
        <mxCell id="-SfcoU4QxyxbX_HQiDti-11" value="" style="endArrow=classic;html=1;exitX=1;exitY=1;exitDx=0;exitDy=0;entryX=0;entryY=0;entryDx=0;entryDy=0;" edge="1" parent="1" source="-SfcoU4QxyxbX_HQiDti-10" target="-SfcoU4QxyxbX_HQiDti-13">
          <mxGeometry width="50" height="50" relative="1" as="geometry">
            <mxPoint x="80" y="200" as="sourcePoint" />
            <mxPoint x="250" y="200" as="targetPoint" />
          </mxGeometry>
        </mxCell>
        <mxCell id="-SfcoU4QxyxbX_HQiDti-12" value="включение камеры" style="text;html=1;align=center;verticalAlign=middle;resizable=0;points=[];autosize=1;strokeColor=none;fillColor=none;" vertex="1" parent="1">
          <mxGeometry x="80" y="180" width="120" height="20" as="geometry" />
        </mxCell>
        <mxCell id="-SfcoU4QxyxbX_HQiDti-13" value="" style="rounded=0;whiteSpace=wrap;html=1;" vertex="1" parent="1">
          <mxGeometry x="285" y="200" width="10" height="30" as="geometry" />
        </mxCell>
        <mxCell id="-SfcoU4QxyxbX_HQiDti-14" value="" style="endArrow=classic;html=1;exitX=0;exitY=1;exitDx=0;exitDy=0;entryX=0.75;entryY=0;entryDx=0;entryDy=0;" edge="1" parent="1" source="-SfcoU4QxyxbX_HQiDti-13" target="-SfcoU4QxyxbX_HQiDti-17">
          <mxGeometry width="50" height="50" relative="1" as="geometry">
            <mxPoint x="250" y="330" as="sourcePoint" />
            <mxPoint x="80" y="230" as="targetPoint" />
          </mxGeometry>
        </mxCell>
        <mxCell id="-SfcoU4QxyxbX_HQiDti-16" value="выбор&amp;nbsp; режимов съемки" style="text;html=1;align=center;verticalAlign=middle;resizable=0;points=[];autosize=1;strokeColor=none;fillColor=none;" vertex="1" parent="1">
          <mxGeometry x="115" y="210" width="150" height="20" as="geometry" />
        </mxCell>
        <mxCell id="-SfcoU4QxyxbX_HQiDti-17" value="" style="rounded=0;whiteSpace=wrap;html=1;" vertex="1" parent="1">
          <mxGeometry x="50" y="230" width="10" height="50" as="geometry" />
        </mxCell>
        <mxCell id="-SfcoU4QxyxbX_HQiDti-18" value="" style="endArrow=classic;html=1;exitX=1;exitY=1;exitDx=0;exitDy=0;entryX=0;entryY=0;entryDx=0;entryDy=0;" edge="1" parent="1">
          <mxGeometry width="50" height="50" relative="1" as="geometry">
            <mxPoint x="60" y="279" as="sourcePoint" />
            <mxPoint x="285" y="279" as="targetPoint" />
          </mxGeometry>
        </mxCell>
        <mxCell id="-SfcoU4QxyxbX_HQiDti-19" value="настройка под макросъемку" style="text;html=1;align=center;verticalAlign=middle;resizable=0;points=[];autosize=1;strokeColor=none;fillColor=none;" vertex="1" parent="1">
          <mxGeometry x="85" y="260" width="170" height="20" as="geometry" />
        </mxCell>
        <mxCell id="-SfcoU4QxyxbX_HQiDti-20" value="" style="rounded=0;whiteSpace=wrap;html=1;" vertex="1" parent="1">
          <mxGeometry x="285" y="280" width="10" height="50" as="geometry" />
        </mxCell>
        <mxCell id="-SfcoU4QxyxbX_HQiDti-22" value="" style="endArrow=classic;html=1;exitX=0;exitY=1;exitDx=0;exitDy=0;entryX=0.75;entryY=0;entryDx=0;entryDy=0;" edge="1" parent="1">
          <mxGeometry width="50" height="50" relative="1" as="geometry">
            <mxPoint x="287.5" y="330" as="sourcePoint" />
            <mxPoint x="60" y="330" as="targetPoint" />
          </mxGeometry>
        </mxCell>
        <mxCell id="-SfcoU4QxyxbX_HQiDti-24" value="" style="rounded=0;whiteSpace=wrap;html=1;" vertex="1" parent="1">
          <mxGeometry x="50" y="330" width="10" height="50" as="geometry" />
        </mxCell>
        <mxCell id="-SfcoU4QxyxbX_HQiDti-25" value="готовность к съемке" style="text;html=1;align=center;verticalAlign=middle;resizable=0;points=[];autosize=1;strokeColor=none;fillColor=none;" vertex="1" parent="1">
          <mxGeometry x="95" y="310" width="130" height="20" as="geometry" />
        </mxCell>
        <mxCell id="-SfcoU4QxyxbX_HQiDti-26" value="" style="endArrow=classic;html=1;exitX=1;exitY=1;exitDx=0;exitDy=0;entryX=0;entryY=0;entryDx=0;entryDy=0;" edge="1" parent="1" source="-SfcoU4QxyxbX_HQiDti-24" target="-SfcoU4QxyxbX_HQiDti-27">
          <mxGeometry width="50" height="50" relative="1" as="geometry">
            <mxPoint x="250" y="350" as="sourcePoint" />
            <mxPoint x="550" y="380" as="targetPoint" />
          </mxGeometry>
        </mxCell>
        <mxCell id="-SfcoU4QxyxbX_HQiDti-27" value="" style="rounded=0;whiteSpace=wrap;html=1;" vertex="1" parent="1">
          <mxGeometry x="560" y="380" width="10" height="50" as="geometry" />
        </mxCell>
        <mxCell id="-SfcoU4QxyxbX_HQiDti-28" value="выбор ракурса" style="text;html=1;align=center;verticalAlign=middle;resizable=0;points=[];autosize=1;strokeColor=none;fillColor=none;" vertex="1" parent="1">
          <mxGeometry x="350" y="360" width="100" height="20" as="geometry" />
        </mxCell>
        <mxCell id="-SfcoU4QxyxbX_HQiDti-29" value="" style="endArrow=classic;html=1;exitX=0;exitY=1;exitDx=0;exitDy=0;entryX=0.5;entryY=0;entryDx=0;entryDy=0;entryPerimeter=0;" edge="1" parent="1" source="-SfcoU4QxyxbX_HQiDti-27" target="-SfcoU4QxyxbX_HQiDti-30">
          <mxGeometry width="50" height="50" relative="1" as="geometry">
            <mxPoint x="250" y="350" as="sourcePoint" />
            <mxPoint x="310" y="430" as="targetPoint" />
          </mxGeometry>
        </mxCell>
        <mxCell id="-SfcoU4QxyxbX_HQiDti-30" value="" style="rounded=0;whiteSpace=wrap;html=1;" vertex="1" parent="1">
          <mxGeometry x="285" y="430" width="10" height="30" as="geometry" />
        </mxCell>
        <mxCell id="-SfcoU4QxyxbX_HQiDti-31" value="настройка резкости, освещения, времени задержки затвора" style="text;html=1;align=center;verticalAlign=middle;resizable=0;points=[];autosize=1;strokeColor=none;fillColor=none;" vertex="1" parent="1">
          <mxGeometry x="225" y="410" width="350" height="20" as="geometry" />
        </mxCell>
        <mxCell id="-SfcoU4QxyxbX_HQiDti-32" value="" style="endArrow=classic;html=1;exitX=0;exitY=1;exitDx=0;exitDy=0;entryX=0.75;entryY=0;entryDx=0;entryDy=0;" edge="1" parent="1">
          <mxGeometry width="50" height="50" relative="1" as="geometry">
            <mxPoint x="285" y="460" as="sourcePoint" />
            <mxPoint x="57.5" y="460" as="targetPoint" />
          </mxGeometry>
        </mxCell>
        <mxCell id="-SfcoU4QxyxbX_HQiDti-34" value="" style="rounded=0;whiteSpace=wrap;html=1;" vertex="1" parent="1">
          <mxGeometry x="50" y="460" width="10" height="30" as="geometry" />
        </mxCell>
        <mxCell id="-SfcoU4QxyxbX_HQiDti-35" value="" style="endArrow=classic;html=1;exitX=1;exitY=1;exitDx=0;exitDy=0;entryX=0;entryY=0;entryDx=0;entryDy=0;" edge="1" parent="1">
          <mxGeometry width="50" height="50" relative="1" as="geometry">
            <mxPoint x="60" y="490" as="sourcePoint" />
            <mxPoint x="285" y="490" as="targetPoint" />
          </mxGeometry>
        </mxCell>
        <mxCell id="-SfcoU4QxyxbX_HQiDti-36" value="готовность запечатлить момент" style="text;html=1;align=center;verticalAlign=middle;resizable=0;points=[];autosize=1;strokeColor=none;fillColor=none;" vertex="1" parent="1">
          <mxGeometry x="55" y="440" width="190" height="20" as="geometry" />
        </mxCell>
        <mxCell id="-SfcoU4QxyxbX_HQiDti-37" value="нажатие на затвор" style="text;html=1;align=center;verticalAlign=middle;resizable=0;points=[];autosize=1;strokeColor=none;fillColor=none;" vertex="1" parent="1">
          <mxGeometry x="100" y="470" width="120" height="20" as="geometry" />
        </mxCell>
        <mxCell id="-SfcoU4QxyxbX_HQiDti-40" value="" style="rounded=0;whiteSpace=wrap;html=1;" vertex="1" parent="1">
          <mxGeometry x="285" y="490" width="10" height="30" as="geometry" />
        </mxCell>
        <mxCell id="-SfcoU4QxyxbX_HQiDti-41" value="" style="endArrow=classic;html=1;exitX=0;exitY=1;exitDx=0;exitDy=0;" edge="1" parent="1">
          <mxGeometry width="50" height="50" relative="1" as="geometry">
            <mxPoint x="285" y="520" as="sourcePoint" />
            <mxPoint x="50" y="520" as="targetPoint" />
          </mxGeometry>
        </mxCell>
        <mxCell id="-SfcoU4QxyxbX_HQiDti-42" value="фотография готова" style="text;html=1;align=center;verticalAlign=middle;resizable=0;points=[];autosize=1;strokeColor=none;fillColor=none;" vertex="1" parent="1">
          <mxGeometry x="110" y="500" width="120" height="20" as="geometry" />
        </mxCell>
      </root>
    </mxGraphModel>
  </diagram>
</mxfile>
